<svg width="12" height="9" viewBox="0 0 12 9" fill="none" xmlns="http://www.w3.org/2000/svg">
<path d="M10.8713 4.71936C11.9306 3.65998 11.9306 1.94435 10.8713 0.88498C9.93376 -0.0525202 8.45626 -0.174395 7.37813 0.59623L7.34813 0.616855C7.07813 0.80998 7.01626 1.18498 7.20938 1.4531C7.40251 1.72123 7.77751 1.78498 8.04563 1.59185L8.07563 1.57123C8.67751 1.14185 9.50064 1.20935 10.0219 1.73248C10.6125 2.3231 10.6125 3.27936 10.0219 3.86998L7.91813 5.97748C7.32751 6.56811 6.37126 6.56811 5.78063 5.97748C5.25751 5.45435 5.19001 4.63123 5.61938 4.03123L5.64001 4.00123C5.83313 3.73123 5.76938 3.35623 5.50126 3.16498C5.23313 2.97373 4.85626 3.0356 4.66501 3.30373L4.64438 3.33373C3.87188 4.40998 3.99376 5.88748 4.93126 6.82498C5.99063 7.88436 7.70626 7.88436 8.76563 6.82498L10.8713 4.71936ZM1.12876 4.28061C0.0693848 5.33998 0.0693848 7.0556 1.12876 8.11498C2.06626 9.05248 3.54376 9.17436 4.62188 8.40373L4.65189 8.38311C4.92189 8.18998 4.98376 7.81498 4.79064 7.54686C4.59751 7.27873 4.22251 7.21498 3.95438 7.40811L3.92439 7.42873C3.32251 7.85811 2.49938 7.79061 1.97813 7.26748C1.38751 6.67498 1.38751 5.71873 1.97813 5.12811L4.08188 3.02248C4.67251 2.43185 5.62876 2.43185 6.21939 3.02248C6.74251 3.5456 6.81001 4.36873 6.38063 4.97061L6.36001 5.00061C6.16688 5.27061 6.23063 5.64561 6.49876 5.83685C6.76688 6.0281 7.14376 5.96623 7.33501 5.6981L7.35563 5.66811C8.12813 4.58998 8.00626 3.11248 7.06876 2.17498C6.00938 1.1156 4.29376 1.1156 3.23439 2.17498L1.12876 4.28061Z" fill="currentColor"/>
</svg>
